<svg width="80" height="80" viewBox="0 0 80 80" fill="none" xmlns="http://www.w3.org/2000/svg">
<path d="M2.70092 0.516691C0.900958 1.40002 0.000976562 2.91669 0.000976562 5.00002C0.000976562 7.08336 0.900958 8.60002 2.70092 9.48336C3.56757 9.91669 3.91756 10 4.95088 10C5.6842 10 6.43418 9.90002 6.78417 9.75002L7.40083 9.48336L13.3674 15.45L19.3339 21.4167L20.3672 20.3667L21.4172 19.3334L15.4507 13.3667L9.48412 7.40002L9.75078 6.78336C9.90078 6.43336 10.0008 5.68336 10.0008 4.95002C10.0008 2.03336 7.93415 2.47955e-05 4.98421 2.47955e-05C3.9009 2.47955e-05 3.56757 0.0666904 2.70092 0.516691Z" fill="#00D4CA"/>
<path d="M37.6999 0.516656C35.9 1.39999 35 2.89999 35 5.01666C35 6.09999 35.0667 6.43332 35.5167 7.29999C36.0666 8.43332 36.85 9.16666 37.9499 9.61666L38.6666 9.91666V11.0333V12.1667H39.9999H41.3332V11.0333V9.91666L42.0499 9.61666C43.1498 9.16666 43.9332 8.43332 44.4831 7.29999C44.9331 6.43332 44.9998 6.09999 44.9998 4.99999C44.9998 3.89999 44.9331 3.56666 44.4831 2.69999C43.5998 0.899989 42.0999 -1.04904e-05 39.9832 -1.04904e-05C38.8999 -1.04904e-05 38.5666 0.0666561 37.6999 0.516656Z" fill="#00D4CA"/>
<path d="M72.6994 0.516691C71.5494 1.08336 70.9661 1.70002 70.3994 2.91669C69.9161 3.93336 69.8494 5.83336 70.2494 6.78336L70.5161 7.40002L64.5496 13.3667L58.583 19.3334L59.633 20.3667L60.6663 21.4167L66.6328 15.45L72.5994 9.48336L73.216 9.75002C73.566 9.90002 74.316 10 75.0493 10C77.966 10 79.9992 7.93336 79.9992 4.98336C79.9992 2.03336 77.9493 2.47955e-05 74.9827 2.47955e-05C73.8994 2.47955e-05 73.566 0.0666904 72.6994 0.516691Z" fill="#00D4CA"/>
<path d="M34.7503 15.2499C30.567 16.1333 26.2504 18.2666 23.4672 20.8166L22.6172 21.5999L23.9672 22.2999C25.7171 23.2166 28.3837 24.2499 28.4671 24.0333C28.6004 23.5999 30.617 20.8999 31.7837 19.5833C32.967 18.2499 34.0503 17.2166 36.1669 15.4666C36.5836 15.1333 36.8502 14.8499 36.7502 14.8499C36.6669 14.8499 35.7669 15.0333 34.7503 15.2499Z" fill="#00D4CA"/>
<path d="M43.8338 15.45C46.1004 17.3667 47.0504 18.25 48.217 19.5834C49.3837 20.9 51.4003 23.6 51.5336 24.0334C51.6169 24.25 54.2836 23.2167 56.0335 22.3L57.3835 21.6L56.5335 20.8167C56.0502 20.3834 54.9835 19.5667 54.1336 19C50.8336 16.7834 48.267 15.8 43.5004 14.9167C43.1504 14.85 43.2004 14.9167 43.8338 15.45Z" fill="#00D4CA"/>
<path d="M37.3178 17.6833C36.1179 18.6333 34.3179 20.3667 34.4012 20.4667C34.4346 20.5 34.8512 20.3167 35.3345 20.0833C35.8179 19.8333 36.7345 19.5 37.4012 19.3333L38.5845 19.0333L38.6345 17.9333C38.6678 17.3333 38.6178 16.8333 38.5345 16.8333C38.4678 16.8333 37.9178 17.2167 37.3178 17.6833Z" fill="#00D4CA"/>
<path d="M41.168 17.9167C41.168 18.95 41.1846 19 41.6346 19.1C42.8513 19.3667 43.9846 19.7334 44.7179 20.1167C45.1679 20.3334 45.5679 20.5 45.6012 20.4667C45.7845 20.2667 41.8013 16.8334 41.3846 16.8334C41.2346 16.8334 41.168 17.1334 41.168 17.9167Z" fill="#00D4CA"/>
<path d="M37.8504 21.7667C33.9838 22.8 31.4006 26.7834 32.0005 30.7334C32.6172 34.75 35.9671 37.6667 40.0004 37.6667C46.0169 37.6667 49.8335 31.5334 47.2502 26.0334C46.5836 24.6167 45.2169 23.1667 43.9003 22.4667C42.1503 21.5334 39.7504 21.25 37.8504 21.7667Z" fill="#00D4CA"/>
<path d="M20.1178 24.3C17.0179 28.3334 15.2846 32.6667 14.7679 37.7834L14.6846 38.6667H19.3178H23.9511L24.151 36.8667C24.501 33.6 25.2677 30.65 26.501 27.8167L27.1343 26.3667L25.7677 25.8167C24.251 25.2167 22.4178 24.3334 21.4678 23.7334L20.8511 23.3334L20.1178 24.3Z" fill="#00D4CA"/>
<path d="M58.5819 23.6834C57.7652 24.2334 55.6819 25.25 54.2153 25.8334L52.8486 26.3667L53.282 27.3167C54.5486 30.0834 55.4986 33.5834 55.8486 36.8667L56.0486 38.6667H60.6818H65.3317L65.2317 37.8667C64.8651 34.5834 64.1317 31.8334 62.8984 29.1834C62.1651 27.6167 60.4485 24.8834 59.5485 23.8834L59.0818 23.3667L58.5819 23.6834Z" fill="#00D4CA"/>
<path d="M28.9834 28.25C27.8001 30.8833 26.8335 34.5333 26.5835 37.3667L26.4668 38.6667H29.1501C31.5667 38.6667 31.9167 38.6333 32.55 38.3167C32.9333 38.1167 33.2667 37.9333 33.3 37.9167C33.3333 37.8833 32.9833 37.5 32.5167 37.0333C30.2834 34.8 29.0334 31.2667 29.4834 28.4C29.5834 27.7833 29.6167 27.2333 29.5834 27.1833C29.5334 27.15 29.2667 27.6167 28.9834 28.25Z" fill="#00D4CA"/>
<path d="M50.4496 27.75C50.6496 28.8666 50.5496 31.0166 50.2496 32.1666C49.833 33.7833 48.7663 35.6833 47.6497 36.85C47.0997 37.4166 46.683 37.9 46.6997 37.9166C46.733 37.9333 47.0664 38.1166 47.4497 38.3166C48.083 38.6333 48.433 38.6666 50.833 38.6666C53.9162 38.6666 53.6162 38.9333 53.3162 36.4166C52.9829 33.6333 51.3996 28.4666 50.583 27.4C50.3496 27.1 50.333 27.1333 50.4496 27.75Z" fill="#00D4CA"/>
<path d="M2.70092 35.5166C0.900959 36.4 0.000976562 37.9166 0.000976562 40C0.000976562 42.0833 0.900959 43.6 2.70092 44.4833C3.56757 44.9333 3.9009 45 5.00088 45C6.10085 45 6.43418 44.9333 7.30083 44.4833C8.43414 43.9333 9.16746 43.15 9.61745 42.05L9.91745 41.3333H11.0508H12.1674V40V38.6666H11.0508H9.91745L9.61745 37.95C9.16746 36.85 8.43414 36.0666 7.30083 35.5166C6.43418 35.0666 6.10085 35 5.00088 35C3.9009 35 3.56757 35.0666 2.70092 35.5166Z" fill="#00D4CA"/>
<path d="M72.6986 35.5166C71.5653 36.0666 70.832 36.85 70.382 37.95L70.082 38.6666H68.9653H67.832V40V41.3333H68.9653H70.082L70.382 42.05C70.832 43.15 71.5653 43.9333 72.6986 44.4833C73.5653 44.9333 73.8986 45 74.9986 45C76.0985 45 76.4319 44.9333 77.2985 44.4833C79.0985 43.6 79.9985 42.1 79.9985 39.9833C79.9985 37.0333 77.9485 35 74.9819 35C73.8986 35 73.5653 35.0666 72.6986 35.5166Z" fill="#00D4CA"/>
<path d="M38.7846 39.2833C38.6013 39.5999 36.168 47.4999 36.168 47.7833C36.168 48.0999 39.2512 51.7666 39.7512 52.0499C39.8846 52.1166 40.1179 52.1166 40.2512 52.0499C40.7845 51.7499 43.8345 48.0999 43.8345 47.7666C43.8345 47.5666 43.2512 45.5833 42.5345 43.3333L41.2345 39.25L40.0512 39.2C39.4012 39.1666 38.8346 39.2166 38.7846 39.2833Z" fill="#00D4CA"/>
<path d="M34.8176 40.0666C31.7677 41.1333 29.1344 43.0333 27.2178 45.5666C26.2511 46.85 24.9345 49.5833 24.6012 50.9833C24.3845 51.9 24.3845 52.1333 24.5845 52.6C24.7012 52.9 24.9512 53.2166 25.1345 53.3166C25.4845 53.5 37.5009 53.5833 37.5009 53.4C37.5009 53.35 36.7676 52.4833 35.8843 51.4833C34.1176 49.5166 33.6843 48.7666 33.6676 47.7833C33.6676 47.45 34.201 45.5 34.851 43.4833C35.4843 41.45 36.0009 39.7666 35.9676 39.7333C35.9343 39.7166 35.4176 39.85 34.8176 40.0666Z" fill="#00D4CA"/>
<path d="M44 39.7666C44 39.8166 44.5333 41.5 45.1666 43.5166C45.8166 45.5166 46.3333 47.45 46.3333 47.7833C46.3166 48.7666 45.8833 49.5166 44.1333 51.4833C43.2333 52.4833 42.5 53.35 42.5 53.4C42.5 53.5833 54.5164 53.5 54.8664 53.3166C55.0497 53.2166 55.2997 52.9 55.4164 52.6C55.7331 51.8333 55.3831 50.4 54.3498 48.25C52.7331 44.9 50.3665 42.5 47.0332 40.8333C45.7999 40.2166 44 39.5833 44 39.7666Z" fill="#00D4CA"/>
<path d="M14.7357 41.8667C14.7857 42.1667 14.869 42.8667 14.919 43.4167C15.3523 47.4667 17.2523 51.9834 20.1022 55.7L20.8356 56.65L21.9522 55.9834C22.5689 55.6334 23.1355 55.3167 23.2355 55.2834C23.3188 55.25 23.1188 54.85 22.7855 54.3667C21.9689 53.1834 21.7855 52.1834 22.1022 50.8167C22.4189 49.4167 22.8355 48.3 23.6855 46.65L24.3688 45.2834L24.1522 43.3L23.9522 41.3334H19.3023H14.6523L14.7357 41.8667Z" fill="#00D4CA"/>
<path d="M26.5 41.8333C26.5 42.1 26.5667 42.3333 26.6333 42.3333C26.7167 42.3333 26.9833 42.1 27.25 41.8333L27.7333 41.3333H27.1167C26.55 41.3333 26.5 41.3666 26.5 41.8333Z" fill="#00D4CA"/>
<path d="M52.7509 41.8333C53.0176 42.1 53.2842 42.3333 53.3676 42.3333C53.4342 42.3333 53.5009 42.1 53.5009 41.8333C53.5009 41.3666 53.4509 41.3333 52.8842 41.3333H52.2676L52.7509 41.8333Z" fill="#00D4CA"/>
<path d="M55.8514 43.3L55.6348 45.2834L56.3848 46.7667C57.1681 48.3667 57.7347 49.9334 57.9847 51.2167C58.1847 52.3 57.9347 53.3167 57.2181 54.3667C56.8847 54.85 56.6847 55.25 56.7681 55.2834C56.8681 55.3167 57.4347 55.6334 58.0514 55.9834L59.168 56.65L59.9013 55.7C62.9846 51.6667 64.6346 47.4667 65.2346 42.1167L65.3346 41.3334H60.6847H56.0514L55.8514 43.3Z" fill="#00D4CA"/>
<path d="M26.4004 56.5666C25.6671 56.8666 24.5171 57.4 23.8338 57.75L22.6172 58.4L23.4838 59.1833C24.5838 60.2 27.0338 61.85 28.7171 62.7C29.4504 63.0666 30.917 63.65 31.9837 64C33.9503 64.65 36.6669 65.2333 36.6669 65C36.6669 64.9333 36.3836 64.6666 36.0503 64.4C33.817 62.75 31.217 60.0166 29.4504 57.45C28.7171 56.4166 28.3337 56 28.0837 56C27.9004 56.0166 27.1504 56.2666 26.4004 56.5666Z" fill="#00D4CA"/>
<path d="M31.5 56.1C31.5 56.3834 33.8 59.0834 35.0999 60.3334C36.4999 61.6834 38.3165 63.1667 38.5499 63.1667C38.6165 63.1667 38.6665 61.55 38.6665 59.5834V56H35.0833C33.1166 56 31.5 56.05 31.5 56.1Z" fill="#00D4CA"/>
<path d="M41.2846 56.1167C41.218 56.1667 41.168 57.7833 41.168 59.7C41.168 62.2167 41.218 63.1667 41.368 63.1667C41.6846 63.1667 43.3179 61.85 44.9012 60.3333C46.2012 59.0833 48.5012 56.3833 48.5012 56.1C48.5012 55.9667 41.418 55.9667 41.2846 56.1167Z" fill="#00D4CA"/>
<path d="M50.7319 57.2C48.9986 59.7667 46.7153 62.2333 44.3653 64.0667C43.7987 64.5167 43.332 64.9333 43.332 65C43.332 65.2333 46.0653 64.6333 48.0153 64C49.0819 63.65 50.5486 63.0667 51.2819 62.7C52.9652 61.85 55.4151 60.2 56.5318 59.1833L57.3817 58.4L56.0651 57.7167C54.5151 56.9167 52.2819 56 51.8652 56C51.6652 56 51.2485 56.4667 50.7319 57.2Z" fill="#00D4CA"/>
<path d="M13.3331 64.5833L7.39985 70.5167L6.7832 70.25C5.83322 69.85 3.93325 69.9167 2.91661 70.4C1.69997 70.9667 1.08331 71.55 0.516656 72.7C0.0666653 73.5667 0 73.9 0 75C0 76.1 0.0666653 76.4333 0.516656 77.3C1.39997 79.1 2.89994 80 5.01657 80C6.09988 80 6.4332 79.9333 7.29985 79.4833C8.44983 78.9167 9.03315 78.3 9.59981 77.0833C10.0831 76.0667 10.1498 74.1667 9.7498 73.2167L9.48314 72.6L15.4497 66.6333L21.4162 60.6667L20.4163 59.6667C19.8663 59.1167 19.3829 58.6667 19.3329 58.6667C19.2829 58.6667 16.583 61.3333 13.3331 64.5833Z" fill="#00D4CA"/>
<path d="M59.583 59.6667L58.583 60.6667L64.5496 66.6333L70.5161 72.6L70.2494 73.2333C69.8328 74.2167 69.8994 75.9833 70.3828 77.05C70.9494 78.3 71.5327 78.9167 72.6994 79.4833C73.566 79.9333 73.8994 80 74.9993 80C76.0993 80 76.4326 79.9333 77.2993 79.4833C79.0993 78.6 79.9992 77.1 79.9992 74.9833C79.9992 73.9 79.9326 73.5667 79.4826 72.7C78.9159 71.55 78.2993 70.9667 77.0826 70.4C76.066 69.9167 74.166 69.85 73.216 70.25L72.5994 70.5167L66.6662 64.5833C63.4162 61.3333 60.7163 58.6667 60.6663 58.6667C60.6163 58.6667 60.133 59.1167 59.583 59.6667Z" fill="#00D4CA"/>
<path d="M38.6666 68.95V70.0833L37.9499 70.3833C36.85 70.8333 36.0666 71.5667 35.5167 72.7C35.0667 73.5667 35 73.9 35 75C35 76.1 35.0667 76.4333 35.5167 77.3C36.4 79.1 37.9166 80 39.9999 80C42.0832 80 43.5998 79.1 44.4831 77.3C44.9331 76.4333 44.9998 76.1 44.9998 75C44.9998 73.9 44.9331 73.5667 44.4831 72.7C43.9332 71.5667 43.1498 70.8333 42.0499 70.3833L41.3332 70.0833V68.95V67.8333H39.9999H38.6666V68.95Z" fill="#00D4CA"/>
</svg>
