<svg width="40" height="40" viewBox="0 0 40 40" fill="none" xmlns="http://www.w3.org/2000/svg">
<path d="M17.4361 2.16517C17.3985 2.26278 17.1658 2.87091 16.9105 3.52409C16.3775 4.92054 16.3324 5.00313 16.1823 5.00313C15.9871 5.00313 14.4029 5.54369 13.7347 5.8365C13.3668 5.99416 12.8038 6.27946 12.4809 6.46715L11.8878 6.80501L10.4538 6.16684C9.66548 5.81397 8.98978 5.52868 8.95975 5.52868C8.89218 5.52868 5.49114 8.92972 5.49114 8.99729C5.49114 9.02732 5.77643 9.70302 6.1293 10.4913L6.76747 11.9253L6.45965 12.4509C6.28697 12.7362 6.00918 13.2993 5.82899 13.6972C5.51366 14.4179 4.96559 16.0096 4.96559 16.2198C4.96559 16.37 4.95057 16.3775 3.38895 16.9856L2 17.5187V20.0188V22.5189L3.38895 23.0519C4.15474 23.3522 4.81543 23.615 4.86799 23.645C4.91303 23.6751 5.24338 23.5399 5.59625 23.3522C6.67737 22.7741 8.21648 22.3462 9.2 22.3462C9.41773 22.3462 9.47779 22.3237 9.44776 22.2411C9.30511 21.8807 9.23003 20.7771 9.26757 19.6209C9.2976 18.5022 9.33514 18.2094 9.53034 17.4661C10.4313 13.9975 12.7887 11.2947 16.0471 10.0033C19.5758 8.60688 23.7051 9.22252 26.6557 11.5875C28.5777 13.1191 29.854 15.1312 30.4697 17.5862C30.6649 18.352 30.6799 18.5097 30.6799 20.0188C30.6799 21.5429 30.6649 21.678 30.4697 22.4513C29.9366 24.5535 29.0582 26.1151 27.5641 27.6092C25.064 30.1168 21.7906 31.1679 18.1268 30.6423L17.7289 30.5823V30.9502C17.7289 32.0313 17.2108 33.7431 16.5276 34.8843L16.3775 35.147L16.9255 36.5735L17.4811 38H19.9812H22.4813L23.0144 36.6111C23.6225 35.0494 23.63 35.0344 23.7802 35.0344C23.9904 35.0344 25.5821 34.4863 26.3028 34.171C26.7007 33.9908 27.2638 33.713 27.5491 33.5404L28.0747 33.2325L29.5087 33.8707C30.297 34.2236 30.9727 34.5089 31.0027 34.5089C31.0703 34.5089 34.4713 31.1078 34.4713 31.0403C34.4713 31.0102 34.186 30.3345 33.8332 29.5462L33.195 28.1122L33.5328 27.5191C33.7205 27.1962 34.0058 26.6332 34.1635 26.2653C34.4563 25.5971 34.9969 24.0129 34.9969 23.8177C34.9969 23.6676 35.0119 23.6601 36.5735 23.0519L37.9625 22.5189V20.0188V17.5187L36.5585 16.9781C34.9819 16.3625 34.9969 16.37 34.9969 16.2198C34.9969 16.0096 34.4488 14.4179 34.1335 13.6972C33.9533 13.2993 33.6755 12.7362 33.5028 12.4509L33.195 11.9253L33.8332 10.4913C34.186 9.70302 34.4713 9.02732 34.4713 8.99729C34.4713 8.92972 31.0703 5.52868 31.0027 5.52868C30.9727 5.52868 30.297 5.81397 29.5087 6.16684L28.0747 6.80501L27.5491 6.49718C27.2638 6.3245 26.7007 6.04671 26.3028 5.86653C25.5821 5.5512 23.9904 5.00313 23.7802 5.00313C23.63 5.00313 23.6225 4.98811 23.0144 3.42649L22.4813 2.03754L19.9887 2.01501L17.5036 2L17.4361 2.16517Z" fill="#00D4CA"/>
<path d="M19.102 12.098C17.5104 12.526 16.5269 13.8248 16.5269 15.4841C16.5269 17.2409 17.6831 18.6073 19.4399 18.9076C20.7463 19.1254 22.1352 18.5322 22.8559 17.4436C23.6142 16.3024 23.6368 14.6957 22.9085 13.5621C22.1277 12.3383 20.506 11.7226 19.102 12.098Z" fill="#00D4CA"/>
<path d="M18.6818 19.756C17.1877 20.0413 15.6486 20.9347 14.7477 22.0459C14.3573 22.5339 13.8242 23.3748 13.8242 23.5099C13.8242 23.555 13.9894 23.7051 14.1921 23.8328C14.6726 24.1481 15.536 24.9514 15.8964 25.4244L16.1817 25.7998H21.1293C26.565 25.7998 26.3923 25.8148 26.5875 25.3418C26.7227 25.019 26.61 24.4859 26.2271 23.6676C25.3187 21.7306 23.742 20.3942 21.745 19.8611C20.9566 19.6509 19.5001 19.6059 18.6818 19.756Z" fill="#00D4CA"/>
<path d="M8.3967 23.5475C7.25551 23.7276 5.98669 24.2907 5.02569 25.049C3.95958 25.8899 3.0211 27.2939 2.63069 28.6528C2.43549 29.3585 2.3454 31.1153 2.48054 31.8286C3.18627 35.5525 6.53476 38.0676 10.2286 37.6622C14.3954 37.2042 17.2109 33.4428 16.4901 29.2909C16.1072 27.1137 14.6282 25.1767 12.5861 24.1781C12.2182 23.9979 11.6251 23.7802 11.2722 23.6976C10.5439 23.5174 9.07241 23.4423 8.3967 23.5475ZM10.1911 27.0761C10.4989 27.8795 10.7767 28.5627 10.8067 28.5927C10.8367 28.6227 11.5575 28.6903 12.3984 28.7278C13.2468 28.7729 13.9825 28.8255 14.0351 28.8405C14.2603 28.9231 14.0426 29.1633 12.9089 30.0868C12.2332 30.6273 11.6776 31.1304 11.6626 31.1979C11.6551 31.2655 11.8278 31.9938 12.053 32.8121C12.2782 33.638 12.4434 34.3437 12.4209 34.3812C12.3458 34.5014 12.1131 34.3812 10.8217 33.5329C10.1085 33.0599 9.49284 32.707 9.43278 32.737C9.37272 32.7595 8.75708 33.15 8.05885 33.6004C7.36062 34.0584 6.75249 34.4338 6.70744 34.4338C6.6624 34.4338 6.60233 34.3963 6.57981 34.3587C6.55729 34.3137 6.72246 33.5929 6.9552 32.7445C7.18794 31.8961 7.35311 31.1679 7.33059 31.1228C7.29305 31.0703 5.49868 29.5912 4.89055 29.1258C4.79295 29.0507 4.79295 29.0282 4.89055 28.9231C4.97313 28.8405 5.37105 28.7954 6.57981 28.7354C7.44321 28.6903 8.17147 28.6302 8.2015 28.5927C8.22402 28.5627 8.47929 27.932 8.75708 27.1887C9.03487 26.4455 9.29764 25.7773 9.33518 25.7022C9.50035 25.3869 9.643 25.6196 10.1911 27.0761Z" fill="#00D4CA"/>
</svg>
