<svg width="40" height="40" viewBox="0 0 40 40" fill="none" xmlns="http://www.w3.org/2000/svg">
<path d="M20.1644 0.224959C19.9978 0.441579 19.9895 0.533226 20.0145 1.48302C20.0394 2.44948 20.0478 2.52447 20.2394 2.67443C20.581 2.94938 21.1475 2.83273 21.3225 2.44115C21.3725 2.33284 21.4142 1.83295 21.4142 1.34139C21.4142 0.558221 21.3892 0.408253 21.2392 0.216628C21.1059 0.0416651 20.9976 7.15256e-06 20.706 7.15256e-06C20.406 7.15256e-06 20.3061 0.0416651 20.1644 0.224959Z" fill="#00D4CA"/>
<path d="M14.7815 1.61632C14.4149 1.92459 14.4649 2.24119 15.0231 3.17432C15.2814 3.61589 15.5564 3.99914 15.623 4.03247C16.0979 4.21576 16.6645 3.89917 16.6645 3.44926C16.6645 3.10767 15.8063 1.63298 15.5397 1.51634C15.2231 1.36638 15.0315 1.39137 14.7815 1.61632Z" fill="#00D4CA"/>
<path d="M25.8542 1.49968C25.6292 1.59133 24.7461 3.141 24.7461 3.44926C24.7461 3.89917 25.3126 4.21576 25.7875 4.03247C26.0125 3.94082 26.8623 2.41615 26.8623 2.09122C26.8623 1.59966 26.3541 1.29972 25.8542 1.49968Z" fill="#00D4CA"/>
<path d="M19.2805 4.36575C17.8891 4.68235 16.4561 5.61548 15.6313 6.73191C15.1897 7.33178 14.7565 8.26492 14.5648 9.01476C14.4232 9.5813 14.4065 9.8729 14.4315 10.781C14.4732 12.0391 14.6231 12.564 15.2064 13.5804C16.3145 15.5217 16.681 16.5798 16.8727 18.4711L16.931 18.9959H19.0305H21.1384L21.3884 18.2628C21.5217 17.8629 21.6633 17.4796 21.6966 17.4046C21.7383 17.3046 21.655 17.263 21.2384 17.1797C20.6219 17.0714 20.1636 16.7798 19.872 16.3382C19.6804 16.0549 19.6054 16.0133 19.2472 15.9716C18.489 15.88 17.8641 15.4384 17.5725 14.7885C17.4892 14.6052 17.3142 14.3886 17.1809 14.3136C16.6061 13.972 16.2311 13.0056 16.4144 12.314C16.4644 12.1224 16.5977 11.8142 16.7144 11.6475L16.9143 11.3309L16.6477 10.856C16.1645 9.99788 16.3145 9.06474 17.0393 8.43155C17.2059 8.28158 17.3726 8.16494 17.4142 8.16494C17.4475 8.16494 17.5059 8.05663 17.5392 7.92332C17.6725 7.30679 18.5723 6.66526 19.2888 6.66526C19.4971 6.66526 19.6637 6.63193 19.6637 6.59027C19.6637 6.54862 19.8387 6.32366 20.047 6.09038C20.3469 5.75712 20.5219 5.64048 20.8801 5.53217C21.5967 5.32388 22.3298 5.5155 22.863 6.04872C23.3379 6.53195 23.3713 6.65693 23.3963 8.37323C23.4296 10.2145 23.3963 10.5478 23.113 10.956L22.9047 11.2643L23.163 11.7725C23.4129 12.2724 23.4129 12.2807 23.4129 13.6804C23.4129 14.4469 23.4296 15.0801 23.4463 15.0801C23.4629 15.0801 23.7295 14.9052 24.0461 14.6969C24.6543 14.2886 25.3042 13.972 25.8291 13.8304C26.1124 13.7554 26.1707 13.6804 26.4456 13.1305C26.9038 12.1724 27.0205 11.5642 26.9705 10.2895C26.9205 9.07308 26.7872 8.54819 26.2956 7.60672C25.5125 6.10705 24.1878 5.00728 22.5381 4.48239C21.8716 4.26577 20.0137 4.19912 19.2805 4.36575Z" fill="#00D4CA"/>
<path d="M10.9573 5.49884C10.549 5.65714 10.3907 6.17369 10.6573 6.50696C10.874 6.7819 12.107 7.49841 12.457 7.55673C12.9735 7.64005 13.3484 6.99852 13.0818 6.49862C12.9902 6.32366 11.4322 5.41552 11.2406 5.42385C11.1739 5.42385 11.0489 5.45718 10.9573 5.49884Z" fill="#00D4CA"/>
<path d="M29.2866 5.84043C28.3034 6.39864 28.2451 6.45696 28.2451 6.84854C28.2451 7.29845 28.5617 7.62338 28.9533 7.55673C29.3032 7.49841 30.5363 6.78189 30.7529 6.50695C31.0612 6.1237 30.7113 5.41552 30.2197 5.41552C30.1114 5.41552 29.6948 5.60714 29.2866 5.84043Z" fill="#00D4CA"/>
<path d="M20.9553 6.8735C20.6887 7.13178 20.6804 7.54836 20.922 7.9566C21.1303 8.30653 21.0636 8.56481 20.7054 8.79809C20.5388 8.9064 20.4554 8.91473 20.2638 8.83975C20.0389 8.7481 19.6639 8.28153 19.6639 8.09824C19.6639 7.81497 18.9891 7.84829 18.7725 8.1399C18.5975 8.37318 18.6392 8.82308 18.8724 9.09803C19.1474 9.42296 19.1474 9.77288 18.8641 9.9895C18.5475 10.2394 18.3142 10.2061 17.9893 9.87286C17.831 9.71456 17.681 9.58126 17.6477 9.58126C17.606 9.58126 17.5811 9.71456 17.5811 9.88119C17.5811 10.0978 17.6477 10.2394 17.8227 10.4227C18.056 10.656 18.0976 10.6644 18.8641 10.6644C19.5306 10.6644 19.6639 10.6394 19.6639 10.5394C19.6639 10.3311 20.0555 9.99783 20.2888 9.99783C20.4388 9.99783 20.6054 10.1061 20.8054 10.3311C21.0636 10.6227 21.1553 10.6644 21.4552 10.6644C21.7052 10.6644 21.8468 10.6144 21.9801 10.4727C22.1551 10.2894 22.1634 10.2061 22.1634 8.67312C22.1634 7.09012 22.1634 7.07346 21.9551 6.8735C21.6802 6.59023 21.2303 6.59023 20.9553 6.8735Z" fill="#00D4CA"/>
<path d="M18.006 12.0308C17.7643 12.1641 17.5894 12.464 17.5811 12.7556C17.5811 13.0805 17.6644 13.0972 17.8977 12.8223C18.1643 12.4973 18.3892 12.414 18.6892 12.514C19.1224 12.6723 19.2057 13.1139 18.8724 13.5138C18.5808 13.8637 18.5808 14.3386 18.8808 14.5719C19.2557 14.8718 19.5056 14.8052 19.7473 14.3553C20.0055 13.8637 20.3055 13.6804 20.6387 13.797C20.7637 13.8387 20.922 13.9887 20.9887 14.122C21.097 14.3386 21.0886 14.3969 20.9303 14.6802C20.5554 15.3134 20.822 15.9466 21.4552 15.9466C21.6468 15.9466 21.8135 15.8799 21.9551 15.7466L22.1634 15.555V13.9887C22.1634 13.1305 22.1384 12.364 22.1134 12.289C22.0801 12.2224 21.9468 12.0974 21.8135 12.0308C21.4469 11.8391 21.0636 11.9391 20.797 12.289C20.6804 12.439 20.5054 12.589 20.4221 12.6223C20.1555 12.7056 19.7473 12.4473 19.6889 12.1641L19.6473 11.9141H18.9224C18.4892 11.9224 18.1309 11.9641 18.006 12.0308Z" fill="#00D4CA"/>
<path d="M26.3708 14.9635C24.4796 15.4384 22.9216 17.0297 22.455 18.971C22.2634 19.7625 22.3134 21.1288 22.5717 21.912C22.8216 22.6952 23.2965 23.4533 23.913 24.0782C24.8962 25.053 26.0209 25.5529 27.4206 25.6362C30.5783 25.8195 33.1611 23.395 33.1611 20.2457C33.1611 17.9379 31.7114 15.8633 29.5785 15.1051C29.0536 14.9218 28.787 14.8802 27.9122 14.8635C27.1873 14.8385 26.7208 14.8718 26.3708 14.9635ZM30.5283 17.7796C30.8949 17.9295 31.0782 18.2128 31.0782 18.6127C31.0782 18.9376 31.0199 19.0043 29.1786 20.8456C26.7791 23.2534 26.9791 23.2117 25.3544 21.5537C24.4629 20.6539 24.4129 20.5873 24.4129 20.2624C24.4129 19.6375 25.0795 19.1543 25.5877 19.4125C25.696 19.4709 26.0376 19.7625 26.3542 20.0624L26.9124 20.6206L28.3121 19.2292C29.5285 18.0128 29.9118 17.6879 30.1867 17.6712C30.22 17.6629 30.3783 17.7129 30.5283 17.7796Z" fill="#00D4CA"/>
<path d="M16.9976 20.379C16.9976 20.5789 17.4558 20.9622 17.7557 21.0288C17.8974 21.0538 18.7055 21.0788 19.547 21.0788H21.08V20.6623V20.2457H19.0388C17.2225 20.2457 16.9976 20.2623 16.9976 20.379Z" fill="#00D4CA"/>
<path d="M17.9976 22.3535C17.9976 22.5285 18.2392 22.8201 18.4975 22.9534C18.8224 23.1201 21.7051 23.1367 21.6384 22.9701C21.6218 22.9201 21.5551 22.7285 21.4885 22.5535L21.3802 22.2452H19.6889C18.3725 22.2452 17.9976 22.2702 17.9976 22.3535Z" fill="#00D4CA"/>
<path d="M19.1221 24.5781C19.3637 25.0446 19.5886 25.1196 20.7051 25.1196C21.8215 25.1196 22.0464 25.0446 22.2881 24.5781L22.4214 24.3281H20.7051H18.9888L19.1221 24.5781Z" fill="#00D4CA"/>
<path d="M15.065 26.9526C14.4401 27.1109 14.1152 27.2775 11.6074 28.7189L9.50781 29.9353L9.81608 30.4852C9.98271 30.7934 10.6492 31.9682 11.2908 33.1013L12.4572 35.1508L12.8071 34.9509C12.9987 34.8342 13.232 34.7426 13.332 34.7426C13.432 34.7426 15.3316 35.2341 17.5644 35.834C22.9966 37.3004 22.9966 37.3004 24.9462 36.1173C29.8285 33.1596 35.4772 29.627 35.6105 29.4604C35.8022 29.2104 35.8772 28.6022 35.7439 28.219C35.6939 28.0523 35.5356 27.8191 35.3856 27.6941C35.1357 27.4858 35.0857 27.4775 34.4108 27.5108C33.8693 27.5358 33.5693 27.6024 33.1194 27.7941C32.8028 27.9357 31.0032 28.9438 29.1203 30.0436C27.0041 31.2766 25.4877 32.1098 25.1295 32.2264C24.0047 32.6097 22.8383 32.4847 19.8306 31.6599C18.031 31.1683 17.8477 31.1017 17.7477 30.9017C17.5478 30.5268 17.8227 29.9936 18.2143 29.9936C18.3059 29.9936 19.0391 30.1769 19.8389 30.4018C21.9968 31.0017 22.505 31.11 22.8716 31.0434C23.5215 30.9184 23.8881 30.2269 23.6464 29.5937C23.4881 29.1854 23.1299 28.9521 22.3551 28.7855C21.3386 28.5689 19.9056 28.1357 18.1393 27.5025C16.3313 26.8609 15.8065 26.761 15.065 26.9526Z" fill="#00D4CA"/>
<path d="M5.83343 28.6189C4.13379 29.5687 4.00049 29.6853 4.00049 30.2519C4.00049 30.5684 8.96609 39.4166 9.34101 39.7581C9.74093 40.1414 10.1158 40.0831 11.2073 39.4832C11.7072 39.2083 12.2237 38.8667 12.357 38.7334C12.8236 38.2335 12.8486 38.2918 10.0325 33.3012C8.6245 30.8184 7.39143 28.6939 7.29145 28.5855C7.16648 28.4606 6.98318 28.3773 6.74157 28.3523C6.4333 28.3273 6.28333 28.3689 5.83343 28.6189ZM6.70824 30.3685C6.82488 30.4768 6.91653 30.6434 6.91653 30.7434C6.91653 30.9684 6.55827 31.3266 6.33332 31.3266C6.09171 31.3266 5.83343 31.035 5.83343 30.7601C5.83343 30.4935 5.90008 30.3852 6.12503 30.2602C6.37498 30.1185 6.48329 30.1352 6.70824 30.3685Z" fill="#00D4CA"/>
</svg>
