<svg width="40" height="40" viewBox="0 0 40 40" fill="none" xmlns="http://www.w3.org/2000/svg">
<path d="M16.9189 4.37275L16.3953 5.75257L16.0415 5.83748C15.1145 6.05683 13.3314 6.79273 12.4681 7.31635L12.2205 7.46495L10.876 6.86349L9.53159 6.26203L7.92535 7.86828C7.03378 8.75277 6.31203 9.50282 6.31203 9.54528C6.31203 9.58066 6.56677 10.1963 6.88518 10.9109L7.45834 12.2129L7.23191 12.6092C6.70828 13.5574 6.24835 14.6683 5.87332 15.8712L5.71057 16.3948L5.21526 16.5859C4.94637 16.692 4.33076 16.9255 3.8496 17.1095L2.98633 17.4491L3.00048 19.7559L3.02171 22.0627L4.38737 22.5934L5.74595 23.117L5.81671 23.4071C6.01484 24.1925 6.4394 25.2893 6.92056 26.2516L7.44418 27.3201L6.8498 28.6575L6.25542 29.9948L7.71307 31.4666L9.1778 32.9313L9.21318 22.7632C9.24148 15.1494 9.26978 12.5384 9.33347 12.404C9.46791 12.0926 9.86416 11.6893 10.1684 11.5549C10.4232 11.4346 10.685 11.4204 12.9281 11.4204H15.4046L16.0769 11.1303C18.3907 10.1255 21.1645 10.1255 23.4571 11.1303L24.1081 11.4204H26.5847C28.8277 11.4204 29.0896 11.4346 29.3443 11.5549C29.6486 11.6893 30.0448 12.0926 30.1793 12.404C30.2429 12.5384 30.2712 15.1494 30.2995 22.7632L30.3349 32.9313L31.7996 31.4666L33.2573 29.9948L32.6629 28.6575L32.0685 27.3201L32.5922 26.2516C33.0733 25.2893 33.4979 24.1925 33.696 23.4071L33.7668 23.1099L35.1466 22.5934L36.5264 22.0697V19.763V17.4491L36.2646 17.343C36.116 17.2864 35.5216 17.0529 34.9343 16.8335C34.3541 16.6071 33.8517 16.409 33.8234 16.3807C33.7951 16.3594 33.6748 16.0198 33.5616 15.6306C33.2927 14.739 32.8115 13.5715 32.387 12.8285C32.1676 12.4252 32.0827 12.2058 32.111 12.1068C32.1393 12.0219 32.4011 11.4133 32.7054 10.7411L33.2573 9.52405L31.6157 7.89658L29.9811 6.26203L28.6367 6.86349L27.2852 7.46495L26.7262 7.13945C26.0186 6.73612 24.8652 6.25496 24.0373 6.0073C23.6906 5.90116 23.3368 5.79502 23.2519 5.75964C23.1457 5.71719 22.9759 5.36339 22.5938 4.35152L22.0702 3.00002H19.7564H17.4425L16.9189 4.37275Z" fill="#00D4CA"/>
<path d="M10.4159 12.6374C10.2744 12.7931 10.2744 12.8143 10.2744 24.7373C10.2744 36.5896 10.2744 36.6816 10.4159 36.8231C10.5575 36.9646 10.6494 36.9646 17.8032 36.9646H25.0561L25.0773 35.3088L25.0986 33.653L25.3321 33.37C25.4524 33.2073 25.5585 33.0657 25.5585 33.0445C25.5585 33.0233 24.0796 33.0021 22.2682 33.0021H18.9708L18.8009 32.8252C18.5816 32.6129 18.5745 32.4289 18.7939 32.1742L18.9637 31.976H23.188H27.4124L27.5893 32.1812C27.7237 32.3369 27.752 32.436 27.7237 32.5917L27.6884 32.7898H28.4596H29.238V22.841C29.238 12.8073 29.238 12.694 28.9974 12.5384C28.955 12.5101 24.7872 12.4818 19.7421 12.4818H10.5645L10.4159 12.6374ZM15.1781 15.9773C16.2961 16.2391 17.0886 17.3288 16.9683 18.4397C16.8904 19.2252 16.3739 19.9681 15.6663 20.3149C15.3196 20.4847 15.1781 20.513 14.6615 20.513C14.1803 20.513 13.9964 20.4776 13.7346 20.3502C13.2039 20.0884 12.8501 19.7346 12.5953 19.2252C12.3972 18.8148 12.3618 18.6803 12.3689 18.2133C12.3689 17.5765 12.5246 17.1731 12.9633 16.699C13.3383 16.2957 13.6143 16.1188 14.1025 15.9914C14.5837 15.857 14.6757 15.857 15.1781 15.9773ZM27.4761 16.5929C27.8157 16.7698 27.7874 17.3359 27.4265 17.4986C27.1789 17.6118 19.1972 17.6118 18.9495 17.4986C18.5957 17.3359 18.5604 16.784 18.8859 16.5929C19.0628 16.4868 27.285 16.4868 27.4761 16.5929ZM27.6034 19.1049C27.7945 19.3525 27.7874 19.5082 27.5822 19.7488L27.4124 19.9469H23.188H18.9637L18.7939 19.7488C18.5887 19.5082 18.5816 19.3525 18.7726 19.1049L18.9142 18.9209H23.188H27.4619L27.6034 19.1049ZM15.4682 22.6075C15.9847 22.7985 16.5154 23.2868 16.7631 23.7892C16.9258 24.1288 16.9612 24.2845 16.9612 24.7586C16.9612 25.4379 16.8126 25.82 16.3456 26.3224C15.6663 27.0583 14.5978 27.2776 13.7063 26.853C13.0977 26.57 12.6519 26.0535 12.4609 25.4166C12.2769 24.8081 12.3194 24.3411 12.6166 23.7396C13.1473 22.6782 14.3714 22.19 15.4682 22.6075ZM27.5539 23.2372C27.7237 23.4141 27.7591 23.492 27.7237 23.6476C27.6954 23.7538 27.6105 23.8953 27.5256 23.959C27.3912 24.0793 27.0798 24.0863 23.188 24.0863C19.2963 24.0863 18.9849 24.0793 18.8505 23.959C18.7656 23.8953 18.6807 23.7538 18.6524 23.6476C18.617 23.492 18.6524 23.4141 18.8222 23.2372L19.0345 23.025H23.188H27.3416L27.5539 23.2372ZM27.5185 25.5369C27.8016 25.735 27.7803 26.1667 27.4761 26.4002C27.3133 26.5276 19.0628 26.5276 18.9 26.4002C18.5957 26.1667 18.5745 25.735 18.8576 25.5369C19.084 25.3812 27.2921 25.3812 27.5185 25.5369ZM15.6875 29.2447C16.5013 29.6481 16.9612 30.384 16.9612 31.3038C16.9612 31.7638 16.9258 31.9053 16.7277 32.3086C16.3173 33.1507 15.5885 33.6035 14.6615 33.6035C12.7227 33.5894 11.6755 31.41 12.8571 29.8603C13.5011 29.0183 14.6898 28.7565 15.6875 29.2447ZM27.5751 29.7825C27.7945 29.9948 27.8016 30.1788 27.5822 30.4335L27.4124 30.6316H23.188H18.9637L18.7939 30.4335C18.5745 30.1788 18.5816 29.9948 18.8009 29.7825L18.9708 29.6056H23.188H27.4053L27.5751 29.7825Z" fill="#00D4CA"/>
<path d="M14.8034 17.5128C14.3223 17.9303 14.294 17.9445 14.1666 17.8242C13.9543 17.6331 13.5298 17.6685 13.3387 17.8949C13.0486 18.2275 13.1123 18.461 13.6359 18.9775C14.0675 19.4092 14.11 19.4304 14.3435 19.395C14.5416 19.3597 14.768 19.1969 15.2846 18.7299C16.1408 17.9515 16.1408 17.9515 16.1479 17.6402C16.1479 17.3076 15.9143 17.0812 15.5606 17.0812C15.3483 17.0812 15.2209 17.159 14.8034 17.5128Z" fill="#00D4CA"/>
<path d="M14.8396 24.0298L14.3726 24.4685L14.1674 24.3482C13.6933 24.0652 13.1768 24.3199 13.1768 24.8364C13.1768 25.0629 13.2334 25.1549 13.5872 25.5157C13.9551 25.8766 14.04 25.9261 14.2806 25.9261C14.5283 25.9261 14.6273 25.8625 15.1934 25.3601C15.5472 25.0417 15.901 24.7091 15.993 24.61C16.3468 24.2138 16.0779 23.5911 15.5543 23.5911C15.3491 23.5911 15.2288 23.6618 14.8396 24.0298Z" fill="#00D4CA"/>
<path d="M15.3703 30.1504C15.3137 30.1717 15.0519 30.3769 14.7901 30.6104L14.3089 31.0279L14.1249 30.8863C13.7216 30.5679 13.1838 30.8368 13.1768 31.3604C13.1768 31.5515 13.2546 31.6789 13.573 32.0114C14.2169 32.6907 14.3584 32.6624 15.4198 31.6859C16.0921 31.0632 16.1487 30.9854 16.1487 30.7519C16.1416 30.4406 16.0354 30.2778 15.7666 30.1717C15.5543 30.0938 15.526 30.0938 15.3703 30.1504Z" fill="#00D4CA"/>
<path d="M26.2032 33.9503C26.1466 34.0139 26.1253 34.4951 26.1395 35.5211L26.1607 37L27.6679 35.514C28.4887 34.6932 29.168 33.9856 29.168 33.9361C29.168 33.8017 26.3164 33.8158 26.2032 33.9503Z" fill="#00D4CA"/>
</svg>
