<svg width="40" height="40" viewBox="0 0 40 40" fill="none" xmlns="http://www.w3.org/2000/svg">
<path d="M22.9393 0.338257C22.856 0.538317 22.6226 1.15517 22.4142 1.722C22.1307 2.5139 22.0057 2.75564 21.8807 2.78065C21.789 2.79732 21.1221 2.84733 20.3886 2.88901C19.0715 2.96404 18.8715 3.02239 18.9798 3.2808C19.0048 3.36415 20.822 4.83959 21.1971 5.08967C21.2555 5.12301 21.1555 5.63983 20.9387 6.50675C20.747 7.25697 20.5886 7.93217 20.5886 8.01553C20.5886 8.34896 20.8637 8.24893 22.0557 7.45703C22.8643 6.91521 23.3228 6.66513 23.4061 6.69848C23.4895 6.72348 24.0396 7.06525 24.6398 7.45703C25.7485 8.16558 25.9736 8.25727 26.0652 8.0322C26.0903 7.95718 25.9402 7.29032 25.7235 6.54843C25.5151 5.80654 25.34 5.17302 25.34 5.14802C25.34 5.12301 25.8485 4.69788 26.4654 4.19773C28.0075 2.93903 27.9908 2.82233 26.2236 2.82233C25.7652 2.82233 25.19 2.79732 24.9483 2.77231L24.5148 2.71396L23.9896 1.3719C23.5395 0.238228 23.4311 0.0214968 23.2728 0.00482559C23.1227 -0.0201817 23.056 0.046504 22.9393 0.338257Z" fill="#00D4CA"/>
<path d="M11.6694 3.11406C11.5944 3.20576 11.6194 3.52252 11.8194 4.63118C11.9778 5.52311 12.0362 6.06494 11.9861 6.13162C11.9445 6.18164 11.386 6.57342 10.7441 6.99021C9.15198 8.04052 9.15198 8.04886 11.0609 8.32394C11.8528 8.44064 12.5363 8.56568 12.578 8.61569C12.6197 8.65737 12.8197 9.28256 13.0115 9.9911C13.3782 11.3415 13.4532 11.5166 13.6533 11.4749C13.72 11.4582 14.0784 10.8497 14.4535 10.1245L15.1287 8.79908L16.0457 8.82409C16.5542 8.84076 17.221 8.85743 17.5461 8.85743C18.4297 8.86577 18.3964 8.7574 17.146 7.49869L16.104 6.44838L16.5958 5.15633C17.096 3.84761 17.1543 3.55586 16.9126 3.50585C16.8459 3.49751 16.2207 3.78093 15.5289 4.15604C14.837 4.52281 14.2535 4.8229 14.2285 4.8229C14.2118 4.8229 13.6783 4.40611 13.0448 3.90596C12.4113 3.39748 11.8694 2.98903 11.8361 2.98903C11.8028 2.98903 11.7277 3.04738 11.6694 3.11406Z" fill="#00D4CA"/>
<path d="M33.4682 3.90596C32.8764 4.40611 32.3596 4.8229 32.3179 4.8229C32.2845 4.8229 31.6927 4.53948 31.0092 4.19771C30.3256 3.85594 29.7004 3.57253 29.6337 3.57253C29.3587 3.57253 29.417 3.88095 29.9172 5.12299C30.1922 5.83153 30.4257 6.45671 30.4257 6.51507C30.4257 6.57342 29.9755 7.06523 29.4254 7.61539C28.2167 8.81575 28.175 8.94912 29.0086 8.94912C29.3087 8.94912 30.0005 8.93245 30.5507 8.90744L31.551 8.86576L32.2178 10.1578C32.8597 11.4082 33.0514 11.6332 33.2348 11.3915C33.2848 11.3332 33.4599 10.6996 33.6349 9.99109C33.81 9.28255 33.985 8.65737 34.0267 8.61569C34.0684 8.56567 34.7436 8.41563 35.5355 8.28226C36.9192 8.04052 36.9693 8.02385 36.9693 7.83212C36.9693 7.66541 36.7775 7.51536 35.8273 6.91518C35.2021 6.5234 34.6436 6.15663 34.5936 6.10661C34.5352 6.04826 34.5685 5.60646 34.7186 4.6145C34.8353 3.83927 34.9103 3.15574 34.8936 3.09739C34.8019 2.86398 34.5102 3.0307 33.4682 3.90596Z" fill="#00D4CA"/>
<path d="M21.7972 11.7833C17.3543 12.6086 14.3534 16.5514 14.7535 21.0527C14.8869 22.4781 15.1203 23.1283 16.2456 25.1039C16.554 25.6624 16.9291 26.3876 17.0708 26.7044C17.5376 27.7714 17.9294 29.3468 18.0461 30.6222C18.0711 30.939 18.1128 31.3308 18.1378 31.4808L18.1795 31.7476H23.2893H28.4075L28.4659 31.1057C28.6909 28.6216 29.2328 26.9545 30.5498 24.7038C31.4668 23.1533 31.7502 22.2531 31.8169 20.736C31.8752 19.4773 31.7585 18.577 31.4168 17.535C30.4915 14.7509 28.2575 12.6669 25.4316 11.9334C24.398 11.6749 22.7725 11.5999 21.7972 11.7833ZM24.2813 14.8426C24.448 15.301 24.473 15.326 24.8732 15.4594C25.1066 15.5344 25.4733 15.6928 25.6901 15.8012L26.0735 16.0096L26.557 15.7928L27.0405 15.5678L27.6156 16.1429L28.1991 16.7264L27.9741 17.2016L27.7573 17.6684L27.9574 18.0602C28.0658 18.2769 28.2158 18.6437 28.2908 18.8771C28.4242 19.2939 28.4492 19.3105 28.9244 19.4856L29.4245 19.669V20.4859V21.3028L28.9327 21.4862C28.4492 21.6612 28.4325 21.6779 28.2992 22.103C28.2158 22.3448 28.0658 22.7032 27.9574 22.9033L27.7573 23.27L27.9824 23.7619L28.1991 24.2537L27.6323 24.8288L27.0655 25.3957L26.5737 25.1873L26.0902 24.9706L25.5233 25.229C25.2149 25.3623 24.8565 25.5124 24.7231 25.5541C24.5314 25.6124 24.448 25.7291 24.2813 26.1459L24.0729 26.6711L23.2727 26.646L22.4724 26.621L22.2807 26.1126C22.114 25.6791 22.0473 25.5874 21.8473 25.5541C21.7139 25.5207 21.3554 25.3873 21.047 25.2373L20.4885 24.9789L20.005 25.1873L19.5216 25.3957L18.9547 24.8205L18.3879 24.2537L18.5713 23.8119C18.7964 23.2617 18.7964 23.245 18.5546 22.7616C18.4462 22.5448 18.3129 22.2114 18.2545 22.0197C18.1545 21.6862 18.1128 21.6529 17.621 21.4779L17.0875 21.2861V20.4859V19.6773L17.621 19.4939C18.1462 19.3022 18.1462 19.3022 18.2962 18.8354C18.3712 18.577 18.5046 18.2436 18.5963 18.0935C18.7964 17.7434 18.7964 17.6767 18.5546 17.1266L18.3546 16.6764L18.9214 16.1179L19.4882 15.5594L19.9884 15.7845L20.4885 16.0096L20.847 15.8178C21.047 15.7178 21.3971 15.5761 21.6222 15.4927C22.064 15.3427 22.089 15.326 22.3391 14.7175L22.5058 14.3174L23.306 14.3424L24.1146 14.3674L24.2813 14.8426Z" fill="#00D4CA"/>
<path d="M22.506 17.6184C21.6474 17.8601 21.0389 18.3602 20.6054 19.1938C20.4054 19.5689 20.3804 19.7106 20.3804 20.4525C20.3804 21.1777 20.4054 21.3445 20.5971 21.7529C20.8722 22.3364 21.3557 22.8282 21.9392 23.1283C22.5644 23.4534 23.673 23.5034 24.3565 23.245C25.782 22.7115 26.5739 21.061 26.1071 19.5939C25.6236 18.0768 24.0231 17.2016 22.506 17.6184Z" fill="#00D4CA"/>
<path d="M5.83436 14.6508C5.10915 14.8509 4.82573 15.0093 4.48396 15.4094C4.1672 15.7761 4.00049 16.2179 4.00049 16.7014C4.00049 17.0432 4.55899 19.3189 4.67569 19.4439C4.7257 19.5023 9.20203 18.3769 9.32707 18.2769C9.38542 18.2269 8.74356 15.8762 8.58518 15.5678C8.37678 15.1593 7.82662 14.6925 7.44317 14.5841C7.00138 14.4591 6.46789 14.4841 5.83436 14.6508Z" fill="#00D4CA"/>
<path d="M7.25192 20.1191C5.12629 20.7026 5.04293 20.7276 5.06794 20.9193C5.09294 21.1444 8.91908 35.4403 8.96076 35.4903C9.01911 35.5487 13.6288 34.2649 13.6205 34.1983C13.6121 34.1566 12.7369 30.8306 11.6616 26.8127C10.1528 21.1444 9.68597 19.5022 9.58594 19.5022C9.51926 19.5106 8.46894 19.7857 7.25192 20.1191Z" fill="#00D4CA"/>
<path d="M18.197 33.3314C18.2553 33.7732 18.5388 34.1483 18.9555 34.34C19.2723 34.4817 19.5807 34.4984 23.2902 34.4984C27.1663 34.4984 27.2997 34.4901 27.6415 34.3233C28.0416 34.1316 28.325 33.7482 28.4 33.2897L28.45 32.9979H23.2985H18.147L18.197 33.3314Z" fill="#00D4CA"/>
<path d="M11.5028 36.1239C10.2858 36.4656 9.27712 36.7407 9.25211 36.7407C9.22711 36.749 9.92731 37.4576 10.7942 38.3329C12.3947 39.9417 12.6448 40.1167 12.8198 39.7666C12.8699 39.6916 13.1366 38.7413 13.42 37.666C13.7118 36.5907 13.9618 35.6571 13.9785 35.5987C14.0452 35.4403 13.8535 35.482 11.5028 36.1239Z" fill="#00D4CA"/>
<path d="M19.5466 36.0572C19.6217 36.4823 19.8967 36.8741 20.2718 37.0825C20.5719 37.2492 20.672 37.2575 23.3728 37.2325C26.0486 37.2075 26.1736 37.1992 26.3987 37.0325C26.7488 36.774 27.0072 36.3406 27.0072 36.0322V35.7487H23.2477H19.4883L19.5466 36.0572Z" fill="#00D4CA"/>
<path d="M20.9636 38.808C21.0386 39.2498 21.3554 39.6999 21.6972 39.8583C21.9306 39.975 22.2557 40 23.3227 40C24.5647 40 24.6647 39.9917 24.9315 39.8083C25.3066 39.5499 25.59 39.1164 25.59 38.783V38.4996H23.2476H20.9053L20.9636 38.808Z" fill="#00D4CA"/>
</svg>
